<svg xmlns="http://www.w3.org/2000/svg" width="28.641" height="33.365" viewBox="0 0 28.641 33.365">
  <path id="Copy_link" data-name="Copy link" d="M18.433,0a1.266,1.266,0,0,1,.212.018h.23a1.263,1.263,0,0,1,.909.386L28.29,9.269a1.259,1.259,0,0,1,.351.872V25.536a7.755,7.755,0,0,1-7.473,7.828l-13.469,0H7.517A7.7,7.7,0,0,1,0,25.87V7.542A7.723,7.723,0,0,1,7.677.019H18.222A1.266,1.266,0,0,1,18.433,0Zm-1.26,2.538H7.68a5.184,5.184,0,0,0-5.16,5.034V25.536a5.185,5.185,0,0,0,5.054,5.311H21.119a5.24,5.24,0,0,0,5-5.3V11.729l-3.376,0a5.6,5.6,0,0,1-5.573-5.585Zm.946,18.638a1.26,1.26,0,1,1,0,2.519H9.05a1.26,1.26,0,0,1,0-2.519Zm-3.435-6.3a1.26,1.26,0,1,1,0,2.519H9.048a1.26,1.26,0,0,1,0-2.519ZM19.693,3.951v2.2A3.071,3.071,0,0,0,22.75,9.211l1.992,0Z" transform="translate(-0.001 0)" fill="#6f7378" fill-rule="evenodd"/>
</svg>
