<svg xmlns="http://www.w3.org/2000/svg" width="18.5" height="20.045" viewBox="0 0 18.5 20.045">
  <path id="Combined-Shape" d="M16.422,6.735a.753.753,0,0,1,.69.81c-.006.068-.549,6.794-.862,9.616a2.983,2.983,0,0,1-3.1,2.848c-1.336.023-2.625.036-3.885.036-1.358,0-2.682-.015-3.992-.042a2.974,2.974,0,0,1-3.025-2.835c-.316-2.846-.856-9.556-.861-9.623a.751.751,0,0,1,.689-.81.772.772,0,0,1,.81.689c0,.044.224,2.783.465,5.494l.048.541c.121,1.347.244,2.642.344,3.544a1.475,1.475,0,0,0,1.562,1.5c2.506.053,5.062.056,7.819.006A1.5,1.5,0,0,0,14.755,17c.311-2.8.852-9.5.858-9.572A.768.768,0,0,1,16.422,6.735ZM11.371,0A2.038,2.038,0,0,1,13.338,1.51l.255,1.264a.9.9,0,0,0,.867.724h3.289a.752.752,0,0,1,0,1.5h-17a.752.752,0,1,1,0-1.5H4.04l.1-.006a.9.9,0,0,0,.767-.716l.244-1.219A2.048,2.048,0,0,1,7.129,0Zm0,1.5H7.129a.53.53,0,0,0-.513.393L6.382,3.069a2.385,2.385,0,0,1-.128.428h5.993a2.391,2.391,0,0,1-.129-.428l-.244-1.219A.526.526,0,0,0,11.371,1.5Z" transform="translate(0 0)" fill="#fff" fill-rule="evenodd"/>
</svg>
