<svg xmlns="http://www.w3.org/2000/svg" width="19.5" height="18.94" viewBox="0 0 19.5 18.94">
  <path id="Combined-Shape" d="M18.75,17.44a.75.75,0,0,1,0,1.5H11.5a.75.75,0,0,1,0-1.5ZM14.116.654l1.723,1.339A2.821,2.821,0,0,1,17.1,3.768a2.862,2.862,0,0,1-.368,2.2l-.015.022L16.712,6c-.068.089-.362.461-1.847,2.322a.591.591,0,0,1-.046.069.749.749,0,0,1-.081.09l-.321.4-.228.285L12.5,11.285l-.34.425L7.148,17.98a2.447,2.447,0,0,1-1.886.914l-3.639.046h-.01a.751.751,0,0,1-.73-.577L.064,14.892a2.371,2.371,0,0,1,.46-2.037L9.944,1.073l.011-.013A3,3,0,0,1,14.116.654ZM8.894,4.787l-7.2,9a.879.879,0,0,0-.171.755l.681,2.885,3.039-.038a.949.949,0,0,0,.733-.352l3.235-4.048.417-.521h0l.417-.522,3.109-3.891Zm2.216-2.77-1.279,1.6,4.261,3.271c.82-1.027,1.36-1.7,1.41-1.768a1.36,1.36,0,0,0,.142-1,1.411,1.411,0,0,0-.652-.887c-.071-.049-1.756-1.357-1.808-1.4A1.5,1.5,0,0,0,11.11,2.017Z" transform="translate(0 0)" fill="#fff" fill-rule="evenodd"/>
</svg>
