<svg xmlns="http://www.w3.org/2000/svg" width="30.694" height="30.694" viewBox="0 0 30.694 30.694">
  <path id="Combined-Shape" d="M22,0c5.2,0,8.7,3.649,8.7,9.079V21.615c0,5.43-3.494,9.079-8.7,9.079H8.694C3.493,30.694,0,27.044,0,21.615V9.079C0,3.649,3.493,0,8.694,0Zm0,2.3H8.694C4.811,2.3,2.3,4.962,2.3,9.079V21.615c0,4.118,2.509,6.777,6.392,6.777H22c3.884,0,6.4-2.66,6.4-6.777V9.079C28.392,4.962,25.881,2.3,22,2.3Zm-.375,8.59a1.15,1.15,0,0,1,0,1.627L14.339,19.8a1.149,1.149,0,0,1-1.627,0L9.069,16.16A1.15,1.15,0,1,1,10.7,14.534l2.83,2.827L20,10.892A1.149,1.149,0,0,1,21.623,10.892Z" fill="#08a87b" fill-rule="evenodd"/>
</svg>
